<svg width="16" height="11" viewBox="0 0 16 11" fill="none" xmlns="http://www.w3.org/2000/svg">
<path fill-rule="evenodd" clip-rule="evenodd" d="M13.456 0.092C14.415 0.146 14.886 0.288 15.32 1.06C15.772 1.831 16 3.159 16 5.498V5.501V5.506C16 7.834 15.772 9.172 15.321 9.935C14.887 10.707 14.416 10.847 13.457 10.912C12.498 10.967 10.089 11 8.002 11C5.911 11 3.501 10.967 2.543 10.911C1.586 10.846 1.115 10.706 0.677 9.934C0.23 9.171 0 7.833 0 5.505V5.503V5.5V5.497C0 3.159 0.23 1.831 0.677 1.06C1.115 0.287 1.587 0.146 2.544 0.091C3.501 0.027 5.911 0 8.002 0C10.089 0 12.498 0.027 13.456 0.092ZM11 5.5L6 2.5V8.5L11 5.5Z" fill="#B0B8BC"/>
</svg>
